<svg xmlns="http://www.w3.org/2000/svg" viewBox="0 0 64 64">
  <rect width="64" height="64" rx="14" fill="#fffaf0"/>
  <path d="M32 56 C20 58 9 51 4 40 C14 36 26 44 32 56 Z" fill="#5ba83f"/>
  <path d="M32 56 C44 58 55 51 60 40 C50 36 38 44 32 56 Z" fill="#46882f"/>
  <ellipse cx="32" cy="31" rx="18" ry="25" fill="#ffcb3c" stroke="#e09a00" stroke-width="2.5"/>
  <g fill="#ffdb66">
    <ellipse cx="24" cy="16" rx="4" ry="3.4"/><ellipse cx="34" cy="16" rx="4" ry="3.4"/>
    <ellipse cx="19" cy="24" rx="4" ry="3.4"/><ellipse cx="29" cy="24" rx="4" ry="3.4"/><ellipse cx="39" cy="24" rx="4" ry="3.4"/>
    <ellipse cx="24" cy="32" rx="4" ry="3.4"/><ellipse cx="44" cy="32" rx="4" ry="3.4"/>
    <ellipse cx="19" cy="40" rx="4" ry="3.4"/><ellipse cx="29" cy="40" rx="4" ry="3.4"/><ellipse cx="39" cy="40" rx="4" ry="3.4"/>
    <ellipse cx="24" cy="48" rx="4" ry="3.4"/><ellipse cx="34" cy="48" rx="4" ry="3.4"/>
  </g>
  <ellipse cx="26" cy="32" rx="2.6" ry="3.4" fill="#4a3018"/>
  <ellipse cx="38" cy="32" rx="2.6" ry="3.4" fill="#4a3018"/>
  <path d="M28 39 Q32 44 36 39" stroke="#4a3018" stroke-width="2.4" stroke-linecap="round" fill="none"/>
</svg>
